<svg xmlns="http://www.w3.org/2000/svg" viewBox="0 0 200 90">
  <defs>
    <style>
      .cls-1 {
        fill: none;
      }

      .cls-2 {
        fill: #fcff5a;
      }

      .cls-3 {
        fill: #010300;
      }

      .cls-4 {
        fill: #131100;
      }

      .cls-5 {
        fill: #060300;
      }
    </style>
  </defs>
  <g id="logo" transform="translate(-916 -556)">
    <rect id="Rectangle_14" data-name="Rectangle 14" class="cls-1" width="200" height="90" transform="translate(916 556)"/>
    <g id="Group_5" data-name="Group 5" transform="translate(143.994 68)">
      <g id="Group_4" data-name="Group 4" transform="matrix(0.966, 0.259, -0.259, 0.966, 932.155, 489)">
        <path id="Union_1" data-name="Union 1" class="cls-2" d="M6.23,50.245v-6.89A26.655,26.655,0,0,1,3.644,35.09,29.354,29.354,0,0,1,0,20.2C0,9.045,5.036,0,11.249,0S22.5,9.045,22.5,20.2A29.348,29.348,0,0,1,18.854,35.09a27.941,27.941,0,0,1-2.24,7.588v7.567Z" transform="translate(6.456 19.764)"/>
        <rect id="Rectangle_2" data-name="Rectangle 2" class="cls-3" width="10.859" height="1.573" transform="translate(12.666 70.009)"/>
        <rect id="Rectangle_4" data-name="Rectangle 4" class="cls-3" width="10.859" height="1.573" rx="0.787" transform="translate(12.666 72.762)"/>
        <rect id="Rectangle_5" data-name="Rectangle 5" class="cls-3" width="8.304" height="1.573" rx="0.787" transform="translate(13.944 75.516)"/>
        <rect id="Rectangle_6" data-name="Rectangle 6" class="cls-3" width="5.11" height="1.573" rx="0.787" transform="translate(15.541 78.269)"/>
        <rect id="Rectangle_3" data-name="Rectangle 3" class="cls-3" width="1.277" height="2.36" transform="translate(12.666 71.189)"/>
        <path id="Subtraction_1" data-name="Subtraction 1" class="cls-4" d="M16.614,50.245h-.252v-2.8c.085-.208.17-.425.252-.645v3.442Zm-9.635,0H6.23V46.3c.232.667.484,1.3.748,1.875v2.075ZM21.516,28.47h0a43.2,43.2,0,0,0,.285-4.985A35.335,35.335,0,0,0,18.694,8.254c-2-4.069-4.667-6.309-7.5-6.309S5.7,4.185,3.7,8.254A35.336,35.336,0,0,0,.589,23.485c0,1.4.066,2.792.2,4.149A34.6,34.6,0,0,1,0,20.2a34.365,34.365,0,0,1,.884-7.864A24.971,24.971,0,0,1,3.295,5.917,13.749,13.749,0,0,1,6.87,1.588,7.169,7.169,0,0,1,11.249,0a7.169,7.169,0,0,1,4.379,1.588A13.749,13.749,0,0,1,19.2,5.917a24.971,24.971,0,0,1,2.411,6.422A34.366,34.366,0,0,1,22.5,20.2,34.134,34.134,0,0,1,21.516,28.47Z" transform="translate(6.456 19.764)"/>
        <path id="Subtraction_2" data-name="Subtraction 2" class="cls-4" d="M1.161,35.241H0V27.555A34.459,34.459,0,0,0,2.388,18.79C4.856,14.38,6.271,8.113,6.271,1.6c0-.531-.009-1.068-.028-1.6a38.611,38.611,0,0,1,.347,5.2,36.856,36.856,0,0,1-.906,8.268,25.135,25.135,0,0,1-2.456,6.619,29.834,29.834,0,0,1-2.067,7.589v7.566Z" transform="translate(22.364 34.768)"/>
        <rect id="Rectangle_11" data-name="Rectangle 11" class="cls-4" width="1.597" height="11.799" transform="translate(17.457 0)"/>
        <g id="Group_1" data-name="Group 1" transform="translate(0 10.785)">
          <path id="Path_3" data-name="Path 3" class="cls-4" d="M.874.146,2.542,0,1.668,11.373,0,11.519Z" transform="matrix(0.899, -0.438, 0.438, 0.899, 0, 1.114)"/>
        </g>
        <g id="Group_3" data-name="Group 3" transform="translate(30.15 22.939) rotate(-128)">
          <path id="Path_4" data-name="Path 4" class="cls-4" d="M0,0,1.668.146l.874,11.373L.874,11.373Z" transform="matrix(0.899, -0.438, 0.438, 0.899, 0, 1.114)"/>
        </g>
      </g>
    </g>
    <path id="Path_5" data-name="Path 5" class="cls-5" d="M6.351-78.7l-.129-.262.055-1.408.184-.262a4.443,4.443,0,0,0,1.488-.458,1.084,1.084,0,0,0,.22-.36,10.87,10.87,0,0,0,.514-2.391q.22-1.539,1.4-12.968l1.47-14.9q.79-8.515.79-10.021a1.946,1.946,0,0,0-.165-.917,1.144,1.144,0,0,0-.808-.426,17.2,17.2,0,0,0-1.984-.229l-.11-.262.092-1.408.165-.262a26.309,26.309,0,0,0,3.822.262q9.664,0,12.788-.262l.147.262q-.055.753-.331,4.061l-.349,5.7-.147.262h-.643l-.147-.262q-.184-4.978-.248-5.518a1.655,1.655,0,0,0-.331-.868,3.552,3.552,0,0,0-1.8-.573,19.788,19.788,0,0,0-3.133-.246,17.584,17.584,0,0,0-3.564.295q-.735,5.665-1.892,18.012,1.837.1,3.27.1a53.785,53.785,0,0,0,6.118-.426l.129.327L22.52-101q-4.281-.36-6.559-.36-.882,0-2.536.065L12.3-89.341q-.5,5.174-.625,7.3a32.14,32.14,0,0,0,4.924.393,28.968,28.968,0,0,0,3.959-.229,5.232,5.232,0,0,0,1.975-.508,1.922,1.922,0,0,0,.56-.95,27.462,27.462,0,0,0,.579-3.193q.257-1.768.459-2.849l.165-.262h.772l.129.262q-.257,1.441-.542,5.125t-.34,5.256l-.239.295-12.788-.262A35.472,35.472,0,0,0,6.351-78.7Zm30.371-48.435.478.622q-.717,5.338-2.995,24.954Q32.57-87.54,32.35-84.821q-.037.589-.037,1.048a2.6,2.6,0,0,0,.184,1.081q.184.393.4.393.606,0,2.627-2.718l.533-.688.184.1.2.851-.055.393q-4.446,6.386-5.99,6.386-.551,0-.836-.737a5.745,5.745,0,0,1-.285-2.014,32.16,32.16,0,0,1,.239-3.488q.239-2.112,1.617-13.214,1.3-10.578,1.819-15.785l.643-6.55q.129-1.31.129-2.03a1.5,1.5,0,0,0-.285-1.048,1.366,1.366,0,0,0-1-.295L30.9-123.17l-.147-.262.055-.819.147-.295A19.39,19.39,0,0,0,36.722-127.132Zm14,41.165.2.819-.037.426q-4.52,6.812-7.662,6.812a3.122,3.122,0,0,1-2.095-1,6.078,6.078,0,0,1-1.589-2.865,18.117,18.117,0,0,1-.524-4.781,53.879,53.879,0,0,1,.762-8.727,45.392,45.392,0,0,1,1.525-6.844,14.277,14.277,0,0,1,2.287-4.159,23.013,23.013,0,0,1,2.894-3.144,4.111,4.111,0,0,1,2.655-1.2,2.651,2.651,0,0,1,2.278,1.31,6.451,6.451,0,0,1,.882,3.635,13.779,13.779,0,0,1-.845,4.9,10.924,10.924,0,0,1-3.087,4.241,18.5,18.5,0,0,1-5.365,3.275l-.864.36a46.59,46.59,0,0,0-.367,5.24,12.251,12.251,0,0,0,.735,4.683q.735,1.736,2.058,1.736,2.48,0,5.953-4.847Zm-8.452-8.547a12.182,12.182,0,0,0,3.665-1.949A8.466,8.466,0,0,0,48.6-100a11.536,11.536,0,0,0,.928-4.5,5.364,5.364,0,0,0-.5-2.62,1.414,1.414,0,0,0-1.194-.851,3.183,3.183,0,0,0-1.81.786,6.435,6.435,0,0,0-1.837,2.882A60.374,60.374,0,0,0,42.271-94.515Zm20.78,8.285.2.753-.055.393q-.717,1.113-2.49,3.389a36.128,36.128,0,0,1-2.554,3.046,2.146,2.146,0,0,1-1.35.77q-.533,0-.854-.884a7.7,7.7,0,0,1-.322-2.522,65.794,65.794,0,0,1,.625-6.91q.717-5.764,1.837-16.407l-2.995.131-.129-.262.055-.557.147-.262a20.178,20.178,0,0,0,3.16-2.391q.349-2.882.955-11.3A32.806,32.806,0,0,0,62.17-121.6l.441.589L61.894-116q-.129.95-.974,8.449a11.87,11.87,0,0,0,1.341.1,5.249,5.249,0,0,0,2.572-.458l.184.262-.423,3.209q-.68,0-4.005-.164Q58.55-87.147,58.55-84.035q0,1.506.7,1.506a1.61,1.61,0,0,0,.928-.54,23.684,23.684,0,0,0,2.012-2.407l.643-.884ZM67.7-77.977l-.331-.458q1.286-7.5,2.15-15.67t.864-10.5q0-1.474-.441-1.474-.551,0-3.05,2.947l-.22-.1-.184-.72.055-.491a39.2,39.2,0,0,1,3.445-4.257q1.81-1.932,2.655-1.932.735,0,.735,1.637,0,1.9-1.341,12.674a90.961,90.961,0,0,1,3.344-9.022,23.293,23.293,0,0,1,2.361-4.519,2,2,0,0,1,1.442-.835,1.065,1.065,0,0,1,.661.262l.073.36q-.276,1.8-.625,6.975l-.514.2q-.533-1.31-1.231-1.31a1.967,1.967,0,0,0-1.24.753,12.3,12.3,0,0,0-1.791,3.046,32.2,32.2,0,0,0-1.847,5.191,51.814,51.814,0,0,0-1.259,6.337q-.478,3.439-1.213,9.759A20.136,20.136,0,0,0,67.7-77.977ZM80.874-88.1a50.425,50.425,0,0,1,1.194-11.4,20.043,20.043,0,0,1,3.647-8.171q2.453-3.029,4.786-3.029a4.2,4.2,0,0,1,3.583,2.309q1.451,2.309,1.452,7.909a47.027,47.027,0,0,1-1.369,11.134,21.184,21.184,0,0,1-3.757,8.515q-2.389,2.882-4.685,2.882a3.489,3.489,0,0,1-2.664-1.261A7.731,7.731,0,0,1,81.4-82.644,23.824,23.824,0,0,1,80.874-88.1Zm2.94-.458a25.209,25.209,0,0,0,.312,4.47,6.013,6.013,0,0,0,1.1,2.653,2.4,2.4,0,0,0,1.948,1,2.685,2.685,0,0,0,2.131-1.146,12.381,12.381,0,0,0,1.745-4.257,43.8,43.8,0,0,0,1.2-6.959q.377-3.848.377-7.09a23.718,23.718,0,0,0-.386-4.781,6.384,6.384,0,0,0-1.139-2.718,2.28,2.28,0,0,0-1.819-.917q-2.83,0-4.152,6.042A64.372,64.372,0,0,0,83.814-88.555ZM105.7-127.132l.478.622q-.717,5.338-2.995,24.954-1.635,14.016-1.856,16.734-.037.589-.037,1.048a2.6,2.6,0,0,0,.184,1.081q.184.393.4.393.606,0,2.627-2.718l.533-.688.184.1.2.851-.055.393q-4.446,6.386-5.99,6.386-.551,0-.836-.737a5.744,5.744,0,0,1-.285-2.014,32.161,32.161,0,0,1,.239-3.488q.239-2.112,1.617-13.214,1.3-10.578,1.819-15.785l.643-6.55q.129-1.31.129-2.03a1.5,1.5,0,0,0-.285-1.048,1.366,1.366,0,0,0-1-.295l-1.543-.033-.147-.262.055-.819.147-.295A19.39,19.39,0,0,0,105.7-127.132Zm14,41.165.2.819-.037.426q-4.52,6.812-7.662,6.812a3.122,3.122,0,0,1-2.095-1,6.078,6.078,0,0,1-1.589-2.865,18.117,18.117,0,0,1-.524-4.781,53.879,53.879,0,0,1,.763-8.727,45.393,45.393,0,0,1,1.525-6.844,14.277,14.277,0,0,1,2.287-4.159,23.012,23.012,0,0,1,2.894-3.144,4.11,4.11,0,0,1,2.655-1.2,2.651,2.651,0,0,1,2.278,1.31,6.451,6.451,0,0,1,.882,3.635,13.779,13.779,0,0,1-.845,4.9,10.924,10.924,0,0,1-3.087,4.241,18.5,18.5,0,0,1-5.365,3.275l-.864.36a46.589,46.589,0,0,0-.367,5.24,12.251,12.251,0,0,0,.735,4.683q.735,1.736,2.058,1.736,2.48,0,5.953-4.847Zm-8.452-8.547a12.182,12.182,0,0,0,3.665-1.949A8.466,8.466,0,0,0,117.575-100a11.536,11.536,0,0,0,.928-4.5,5.364,5.364,0,0,0-.5-2.62,1.414,1.414,0,0,0-1.194-.851,3.183,3.183,0,0,0-1.81.786,6.435,6.435,0,0,0-1.837,2.882A60.374,60.374,0,0,0,111.245-94.515ZM122.673-88.1a50.426,50.426,0,0,1,1.194-11.4,20.043,20.043,0,0,1,3.647-8.171q2.453-3.029,4.786-3.029a4.2,4.2,0,0,1,3.583,2.309q1.451,2.309,1.451,7.909a47.027,47.027,0,0,1-1.369,11.134,21.183,21.183,0,0,1-3.757,8.515q-2.389,2.882-4.685,2.882a3.489,3.489,0,0,1-2.664-1.261,7.731,7.731,0,0,1-1.663-3.439A23.823,23.823,0,0,1,122.673-88.1Zm2.94-.458a25.208,25.208,0,0,0,.312,4.47,6.013,6.013,0,0,0,1.1,2.653,2.4,2.4,0,0,0,1.948,1,2.685,2.685,0,0,0,2.131-1.146,12.381,12.381,0,0,0,1.745-4.257,43.8,43.8,0,0,0,1.2-6.959q.377-3.848.377-7.09a23.718,23.718,0,0,0-.386-4.781,6.385,6.385,0,0,0-1.139-2.718,2.28,2.28,0,0,0-1.819-.917q-2.83,0-4.152,6.042A64.372,64.372,0,0,0,125.613-88.555Z" transform="translate(914.994 703.132)"/>
  </g>
</svg>
